# xmcd
#
# Track frame offsets: 
#        150
#        15362
#        32360
#        50375
#        67522
#        88667
#        108290
#        127725
#        148907
#        171515
#        192730
#        210860
#        229800
#        247955
#        265812
#
# Disc length: 3780 seconds
#
# Revision: 3
# Processed by: cddbd v1.5.2PL0 Copyright (c) Steve Scherf et al.
# Submitted via: ExactAudioCopy v0.99pb4
#
DISCID=be0ec20f
DTITLE=Francisco Garcia - Blue Eyes (15 Golden Guitar Hits)
DYEAR=1900
DGENRE=misc
TTITLE0=Blue Eyes (Elton John)
TTITLE1=I Just Called To Say I Love You (Stevie Wonder)
TTITLE2=Song For Guy (Elton John)
TTITLE3=Woman In Love (Barry Gibb - Robin Gibb)
TTITLE4=Love In The Future (B.Wrincq - T.Kolenberg - S.Stern)
TTITLE5=Nothing Compares 2 U (Prince)
TTITLE6=Still Got The Blues (Garry Moore)
TTITLE7=Dreaming (B.Wrincq - T.Kolenberg - S.Stern)
TTITLE8=Another Day In Paradise (Phil Collins)
TTITLE9=A Rainy Day (B.Wrincq - T.Kolenberg - S.Stern)
TTITLE10=Sweet Rendez-Vouz (B.Wrincq - T.Kolenberg - S.Stern)
TTITLE11=Waiting For A Girl Like You (Mick Jones - Lou Gramm)
TTITLE12=More Than I Can Bear (Mark Reilly - Danny White)
TTITLE13=Back To San Francisco (B.Wrincq - T.Kolenberg - S.Stern)
TTITLE14=Everytime You Go Away (Daryl Hall - John Oates)
EXTD=
EXTT0=
EXTT1=
EXTT2=
EXTT3=
EXTT4=
EXTT5=
EXTT6=
EXTT7=
EXTT8=
EXTT9=
EXTT10=
EXTT11=
EXTT12=
EXTT13=
EXTT14=
PLAYORDER=
